PathFileType	4	(X/Y/Z)	 s02c0301.trc
DataRate	CameraRate	NumFrames	NumMarkers	Units	OrigDataRate	OrigDataStartFrame	OrigNumFrames
200	200	4	51	mm	200	1001	2000
Frame#	Time	racr			lacr			c7			jug			rlel			rdr			llel			ldr			s2			lic			ric			lasi			rasi			rpsi			lpsi			rgt			lgt			rth1			rth2			rth3			rth4			rlfc			rmfc			rsh1			rsh2			rsh3			rsh4			rlmal			rmmal			rcal			rtoe			rmt5			rmt1			lth1			lth2			lth4			lth3			llfc			lmfc			lsh1			lsh2			lsh3			lsh4			llmal			lmmal			lcal			ltoe			lmt5			SBIKE			LBIKE			RBIKE			
		X1	Y1	Z1	X2	Y2	Z2	X3	Y3	Z3	X4	Y4	Z4	X5	Y5	Z5	X6	Y6	Z6	X7	Y7	Z7	X8	Y8	Z8	X9	Y9	Z9	X10	Y10	Z10	X11	Y11	Z11	X12	Y12	Z12	X13	Y13	Z13	X14	Y14	Z14	X15	Y15	Z15	X16	Y16	Z16	X17	Y17	Z17	X18	Y18	Z18	X19	Y19	Z19	X20	Y20	Z20	X21	Y21	Z21	X22	Y22	Z22	X23	Y23	Z23	X24	Y24	Z24	X25	Y25	Z25	X26	Y26	Z26	X27	Y27	Z27	X28	Y28	Z28	X29	Y29	Z29	X30	Y30	Z30	X31	Y31	Z31	X32	Y32	Z32	X33	Y33	Z33	X34	Y34	Z34	X35	Y35	Z35	X36	Y36	Z36	X37	Y37	Z37	X38	Y38	Z38	X39	Y39	Z39	X40	Y40	Z40	X41	Y41	Z41	X42	Y42	Z42	X43	Y43	Z43	X44	Y44	Z44	X45	Y45	Z45	X46	Y46	Z46	X47	Y47	Z47	X48	Y48	Z48	X49	Y49	Z49	X50	Y50	Z50	X51	Y51	Z51	
1001	5.0050	757.095610	1242.570920	-156.794352	702.513419	1245.400127	-500.921266	735.886759	1284.547701	-334.884269	672.305139	1175.692758	-313.816667	662.940577	1018.669959	-27.069872	737.112050	843.194088	-109.213647	539.617804	1006.029591	-556.856173	710.819670	866.420120	-509.625060	208.360097	1179.084769	-226.683600	307.892276	1180.484968	-393.431283	358.855990	1163.904759	-112.090827	353.600297	1141.963627	-375.213415	396.937171	1121.747372	-142.471739	251.438124	1234.403748	-178.530083	243.613227	1247.285601	-266.166992	324.361929	1065.532957	-75.854713	253.241675	1103.393293	-421.560419	385.921856	986.027727	-93.303335	441.573752	917.541542	-103.162006	461.590550	834.585136	-91.130350	467.927316	930.249914	-127.515933	476.407303	697.009820	-128.140548	453.173843	688.967770	-235.627116	406.864044	604.414980	-113.112837	357.232069	531.929046	-130.269925	281.369970	490.557622	-122.903648	364.957569	527.185119	-168.698623	179.042360	412.974721	-126.527738	200.806438	427.637167	-208.273171	103.042092	448.609935	-171.947812	230.482737	190.415506	-193.958438	167.746316	274.360256	-127.548898	190.153055	265.046969	-234.890765	365.642580	1021.460747	-459.722511	440.641465	979.076265	-470.805857	466.177418	1002.374958	-457.257921	483.701635	902.618022	-484.282181	554.759658	823.081927	-477.002359	575.329110	789.540834	-375.075346	520.850943	721.731507	-494.843123	502.294030	638.743823	-476.854116	441.468521	572.331912	-473.637472	524.655095	632.697223	-443.179937	375.685194	490.109658	-455.823760	398.686232	481.676559	-380.542510	302.277853	453.205069	-414.702619	575.823622	366.169176	-446.005115	462.788990	376.133552	-498.638023	-125.829764	873.251430	-308.826542	37.488890	86.461032	-514.238202	34.014815	83.214163	-114.120350	
1002	5.0100	755.627549	1243.861271	-155.138694	703.544960	1242.368324	-499.631888	735.661137	1284.261711	-333.448926	671.603066	1174.873667	-312.323488	661.925134	1018.443696	-27.318618	736.914141	843.130781	-108.948301	538.600960	1004.639478	-556.425735	710.612580	866.391911	-509.569454	207.659018	1176.948340	-226.929174	308.104526	1176.977997	-394.080440	357.629900	1163.715056	-112.401220	353.732269	1138.583512	-375.184611	396.102545	1121.328436	-142.384285	255.009501	1228.202937	-184.846029	242.520815	1244.880589	-267.595267	326.449870	1064.851322	-76.336742	251.913280	1099.472355	-421.251725	387.444256	986.536699	-93.598911	444.056161	919.055198	-104.842001	465.561509	836.592135	-91.729676	469.898280	932.142941	-128.896280	482.656117	698.437476	-129.340877	457.402027	691.159414	-236.562888	411.649950	607.177259	-114.512835	359.727399	536.255641	-131.712991	283.179532	496.595873	-124.238426	367.170784	531.623929	-169.986537	178.680773	423.021231	-126.759673	200.760169	437.450114	-208.596614	103.506027	459.628061	-172.016002	227.363059	200.033349	-193.857917	165.657727	284.778415	-127.620964	187.890446	275.113716	-234.981070	363.167457	1016.450257	-460.043931	437.066124	973.603002	-473.050642	463.637559	996.382420	-458.718867	479.679442	896.271245	-485.133826	549.747027	815.985059	-477.903636	572.352611	782.257918	-376.701754	516.682774	714.406458	-495.851495	500.199286	630.862277	-478.098261	440.871746	563.148581	-474.101857	523.500897	624.894696	-445.126461	377.624160	479.317440	-456.100350	400.852482	471.097927	-380.737378	304.859126	442.554799	-414.503821	578.329558	355.071733	-446.173044	465.176851	365.290854	-498.620588	-125.803132	873.291557	-308.682172	37.478846	86.500973	-514.223780	34.028506	83.225574	-114.091782	
1003	5.0150	754.175093	1245.356743	-152.903829	704.689502	1239.543140	-498.240400	735.452651	1284.050152	-331.851544	670.879330	1174.054172	-310.667726	660.963303	1018.158066	-27.421481	736.734994	842.949058	-108.634557	537.848190	1003.193762	-556.397945	710.459921	866.382866	-509.562841	206.898292	1174.617831	-227.371080	308.495159	1173.259304	-394.795582	356.293390	1163.198029	-112.867720	354.041959	1135.143216	-375.303144	394.298688	1120.492890	-143.328254	253.236745	1227.106974	-185.913046	241.560397	1242.327800	-269.283906	326.493479	1063.974721	-76.140779	250.849199	1095.472466	-421.019422	388.608962	986.881730	-93.841509	446.078686	920.403104	-105.544483	469.323061	838.351246	-92.271656	471.238963	934.001997	-130.074276	488.859186	699.788805	-130.583572	462.010647	693.139692	-237.502664	416.110280	610.140038	-115.740754	361.342683	540.459348	-133.619781	284.620356	503.123056	-125.302356	369.162396	535.808429	-171.481488	178.373078	433.329607	-126.947080	200.387933	447.659780	-208.515297	103.910364	470.651942	-172.087355	225.188408	210.175678	-193.838249	164.253307	295.280699	-127.547340	186.315662	285.443386	-235.108827	361.048326	1011.478787	-460.559693	434.246133	967.593115	-473.877130	461.236151	990.115611	-460.037040	475.758620	889.602949	-485.710034	544.987801	808.902134	-478.576489	569.387328	775.164283	-377.908801	512.757515	707.240521	-496.591892	498.255330	623.270483	-479.442340	440.151943	554.538551	-474.787748	522.349915	617.361265	-447.056097	379.404059	468.541270	-456.610183	402.624036	460.592837	-381.092429	306.980822	432.107616	-414.739845	580.322367	343.513816	-446.082141	467.187212	354.286218	-498.596309	-125.715589	873.325888	-308.466638	37.500267	86.547270	-514.184817	34.053282	83.215627	-114.092689	
1004	5.0200	752.540962	1246.451850	-150.711235	706.016306	1236.836216	-496.679125	735.298428	1283.953009	-329.994592	670.136742	1173.237370	-308.848547	659.857706	1017.829964	-27.248001	736.542744	842.659861	-108.270422	537.205384	1002.298062	-556.812077	710.351917	866.409081	-509.616246	206.596271	1172.181615	-228.038626	309.412303	1169.129545	-397.340724	354.839082	1162.352091	-113.490521	354.451483	1131.647304	-375.612141	393.228935	1119.951475	-143.460718	251.470004	1225.553766	-187.308811	241.930075	1238.941905	-271.825148	326.703408	1063.268683	-75.958149	250.132791	1091.434654	-420.950923	389.646702	986.611079	-93.888533	447.756130	921.398822	-106.397294	472.921614	839.939307	-92.786073	472.268592	934.838708	-131.916996	494.934379	701.305513	-131.826448	467.096252	694.900166	-238.270085	420.428592	613.449271	-116.779333	363.146057	545.826007	-134.763090	285.655392	510.626954	-125.822754	365.092369	538.372465	-176.008787	178.397407	443.804981	-127.184351	200.730191	457.757044	-208.645966	104.391865	481.662725	-172.168548	223.783211	220.351601	-193.777277	163.263981	306.132973	-127.553123	185.410036	295.851935	-235.146863	359.134191	1006.320919	-460.988248	431.746784	961.042028	-474.172500	458.990708	983.530532	-461.194999	471.980944	882.551174	-486.021628	540.455443	801.738653	-479.063830	567.436078	768.624534	-378.639433	509.014337	700.129394	-497.715798	496.272940	615.821857	-480.661182	439.380544	546.027342	-475.184587	521.101036	609.853215	-448.813913	380.806174	457.718262	-457.315805	403.929697	450.145260	-381.574131	308.175828	422.220984	-415.338672	581.839421	331.960202	-446.267139	468.694178	343.168366	-498.651922	-125.639974	873.352637	-308.299459	37.538749	86.570771	-514.172901	34.069251	83.234573	-114.072144	
